# xmcd
#
# Track frame offsets:
#	150
#	12027
#	21097
#	31635
#	43210
#	55880
#	66512
#	76045
#	86387
#	101295
#	116817
#	126757
#	140420
#	153062
#	164817
#
# Disc length: 2358
#
# Revision: 2
# Processed by: cddbd v1.5.1PL0 Copyright (c) Steve Scherf et al.
# Submitted via: inCDius 1.1b8
# Normalized: r0:DSETVAR1,TSWAP
#
DISCID=b609340f
DTITLE=Various Artist - Greatest Hits Of Hickory Records - Volume 1
DYEAR=1900
DGENRE=
TTITLE0=Ernie Ashworth - Talk Back Trembling Lips
TTITLE1=Ernie Ashworth - Everybody But Me
TTITLE2=Margie Bowes - Poor Old Heartsick Me
TTITLE3=Roy Acuff - Once More
TTITLE4=June Webb - A Mansion On The Hill
TTITLE5=Wilma Lee and Stoney Cooper - There's A Big Wheel
TTITLE6=Wilma Lee and Stoney Cooper - This Ole House
TTITLE7=Don Gibson - Country Green
TTITLE8=Don Gibson - Woman (Sensuous Woman)
TTITLE9=Lorrie Morgan - Two People In Love
TTITLE10=Bob Gallion - Wall To Wall Love
TTITLE11=Don Everly - Yesterday Just Passed My Way Again
TTITLE12=Don Gibson - I Love You Because
TTITLE13=Bob Luman - Poor Boy Blues
TTITLE14=Glenn Barber - Kissed By The Rain, Warmed By The Sun
EXTD=
EXTT0=
EXTT1=
EXTT2=
EXTT3=
EXTT4=
EXTT5=
EXTT6=
EXTT7=
EXTT8=
EXTT9=
EXTT10=
EXTT11=
EXTT12=
EXTT13=
EXTT14=
PLAYORDER=
